<svg width="530" height="209" viewBox="0 0 530 209" fill="none" xmlns="http://www.w3.org/2000/svg">
<g clip-path="url(#clip0_169_123)">
<path d="M11.875 154V61.75H47.375C56 61.75 62.6667 62.625 67.375 64.375C72.125 66.125 75.4167 68.7917 77.25 72.375C79.125 75.9167 80.0625 80.4583 80.0625 86C80.0625 91.0417 79.1458 95.1042 77.3125 98.1875C75.4792 101.229 71.6458 103.25 65.8125 104.25V103.5C70.7708 103.833 74.5625 104.979 77.1875 106.938C79.8125 108.854 81.6042 111.438 82.5625 114.688C83.5208 117.938 84 121.708 84 126C84 135.667 81.5 142.75 76.5 147.25C71.5417 151.75 63.3333 154 51.875 154H11.875ZM30.4375 141H48.4375C53.2708 141 56.8958 140.604 59.3125 139.812C61.7708 139.021 63.4167 137.521 64.25 135.312C65.0833 133.062 65.5 129.812 65.5 125.562C65.5 122.479 65.1875 119.792 64.5625 117.5C63.9792 115.167 62.6042 113.354 60.4375 112.062C58.3125 110.729 54.9375 110.062 50.3125 110.062H30.4375V141ZM30.4375 98.875H49.625C53.25 98.875 55.8542 98.3958 57.4375 97.4375C59.0625 96.4792 60.0833 95.0625 60.5 93.1875C60.9167 91.2708 61.125 88.9375 61.125 86.1875C61.125 82.9375 60.75 80.4792 60 78.8125C59.25 77.1042 57.8125 75.9583 55.6875 75.375C53.5625 74.75 50.3958 74.4375 46.1875 74.4375H30.4375V98.875ZM101.25 131.938V59.3125H118.25V131.688C118.25 134.146 118.604 136.146 119.312 137.688C120.062 139.229 121.312 140.354 123.062 141.062C124.812 141.771 127.208 142.125 130.25 142.125H132.375L131.062 154.75H123.938C118.979 154.75 114.812 154.021 111.438 152.562C108.062 151.104 105.521 148.708 103.812 145.375C102.104 142.042 101.25 137.562 101.25 131.938ZM172.125 155.438C165.083 155.438 159.417 154.562 155.125 152.812C150.875 151.021 147.792 148.5 145.875 145.25C143.958 142 143 138.146 143 133.688V107.25C143 102.667 144.146 98.75 146.438 95.5C148.729 92.25 152.042 89.7708 156.375 88.0625C160.75 86.3125 166 85.4375 172.125 85.4375C178.25 85.4375 183.479 86.3125 187.812 88.0625C192.146 89.7708 195.458 92.25 197.75 95.5C200.083 98.75 201.25 102.667 201.25 107.25V133.688C201.25 138.104 200.333 141.958 198.5 145.25C196.667 148.5 193.625 151.021 189.375 152.812C185.167 154.562 179.417 155.438 172.125 155.438ZM172.125 143.625C175.75 143.625 178.667 142.958 180.875 141.625C183.125 140.25 184.25 137.854 184.25 134.438V106.5C184.25 103.083 183.188 100.708 181.062 99.375C178.938 98 175.958 97.3125 172.125 97.3125C168.458 97.3125 165.521 98 163.312 99.375C161.104 100.708 160 103.083 160 106.5V134.438C160 137.854 161.042 140.25 163.125 141.625C165.208 142.958 168.208 143.625 172.125 143.625ZM244.875 181.562C240.708 181.562 236.542 181.25 232.375 180.625C228.25 180.042 225.021 179.188 222.688 178.062L226.188 166.5C229.354 167.375 232.5 168.021 235.625 168.438C238.792 168.896 241.667 169.125 244.25 169.125C249.125 169.125 252.667 168.062 254.875 165.938C257.083 163.854 258.188 160.5 258.188 155.875V148.5C256.854 149.292 255.312 149.958 253.562 150.5C251.854 151 250.083 151.375 248.25 151.625C246.417 151.875 244.646 152 242.938 152C234.854 152 228.458 150.167 223.75 146.5C219.083 142.833 216.75 137.708 216.75 131.125V107.062C216.75 103.229 217.562 99.6667 219.188 96.375C220.812 93.0833 223.5 90.4375 227.25 88.4375C231 86.4375 236.021 85.4375 242.312 85.4375C244.771 85.4375 247.167 85.7292 249.5 86.3125C251.875 86.8542 254.062 87.6042 256.062 88.5625C258.062 89.4792 259.75 90.5208 261.125 91.6875L262.562 86.8125H275.188V154.75C275.188 160.25 274.146 165 272.062 169C270.021 173.042 266.771 176.146 262.312 178.312C257.896 180.479 252.083 181.562 244.875 181.562ZM245.75 140.688C248.625 140.688 251.125 140.396 253.25 139.812C255.375 139.229 257.021 138.521 258.188 137.688V102C258.188 101.125 257.062 100.125 254.812 99C252.604 97.875 249.583 97.3125 245.75 97.3125C241.875 97.3125 238.896 98.0417 236.812 99.5C234.771 100.917 233.75 103.312 233.75 106.688V131.75C233.75 135.125 234.854 137.458 237.062 138.75C239.312 140.042 242.208 140.688 245.75 140.688ZM389.25 179.625V86.875H401.125L402.812 91.25C405.021 89.625 407.708 88.25 410.875 87.125C414.042 86 417.604 85.4375 421.562 85.4375C429.438 85.4375 435.583 87.4375 440 91.4375C444.417 95.3958 446.625 100.604 446.625 107.062V133.625C446.625 137.458 445.646 141.042 443.688 144.375C441.729 147.667 438.708 150.333 434.625 152.375C430.583 154.417 425.396 155.438 419.062 155.438C416.396 155.438 414 155.188 411.875 154.688C409.75 154.229 407.875 153.646 406.25 152.938V179.625H389.25ZM417.625 143.625C421.5 143.625 424.458 142.875 426.5 141.375C428.583 139.875 429.625 137.417 429.625 134V106.812C429.625 103.438 428.604 101.021 426.562 99.5625C424.562 98.0625 421.771 97.3125 418.188 97.3125C416.396 97.3125 414.708 97.5208 413.125 97.9375C411.542 98.3542 410.167 98.875 409 99.5C407.833 100.125 406.917 100.771 406.25 101.438V140.688C407.292 141.354 408.75 142.021 410.625 142.688C412.542 143.312 414.875 143.625 417.625 143.625ZM464.375 179.625V86.875H476.25L477.938 91.25C480.146 89.625 482.833 88.25 486 87.125C489.167 86 492.729 85.4375 496.688 85.4375C504.562 85.4375 510.708 87.4375 515.125 91.4375C519.542 95.3958 521.75 100.604 521.75 107.062V133.625C521.75 137.458 520.771 141.042 518.812 144.375C516.854 147.667 513.833 150.333 509.75 152.375C505.708 154.417 500.521 155.438 494.188 155.438C491.521 155.438 489.125 155.188 487 154.688C484.875 154.229 483 153.646 481.375 152.938V179.625H464.375ZM492.75 143.625C496.625 143.625 499.583 142.875 501.625 141.375C503.708 139.875 504.75 137.417 504.75 134V106.812C504.75 103.438 503.729 101.021 501.688 99.5625C499.688 98.0625 496.896 97.3125 493.312 97.3125C491.521 97.3125 489.833 97.5208 488.25 97.9375C486.667 98.3542 485.292 98.875 484.125 99.5C482.958 100.125 482.042 100.771 481.375 101.438V140.688C482.417 141.354 483.875 142.021 485.75 142.688C487.667 143.312 490 143.625 492.75 143.625Z" fill="black"/>
<path d="M289.125 154L319.5 61.75H344.125L374.875 154H355.188L331.438 72.875H333.062L308.5 154H289.125ZM306.688 136.438L310.375 122.062H353.75L357.312 136.438H306.688Z" fill="#1C56EA"/>
<path d="M273 54H393" stroke="#1C56EA" stroke-width="16" stroke-linecap="round"/>
</g>
<defs>
<clipPath id="clip0_169_123">
<rect width="530" height="209" fill="white"/>
</clipPath>
</defs>
</svg>
